inDegrees=yes
name=ik_S46_A02_T02
DataType=double
version=3
OpenSimVersion=4.3-2021-08-27-4bc7ad9
endheader
time	pelvis_tilt	pelvis_list	pelvis_rotation	pelvis_tx	pelvis_ty	pelvis_tz	hip_flexion_r	hip_adduction_r	hip_rotation_r	knee_angle_r	knee_angle_r_beta	ankle_angle_r	subtalar_angle_r	mtp_angle_r	hip_flexion_l	hip_adduction_l	hip_rotation_l	knee_angle_l	knee_angle_l_beta	ankle_angle_l	subtalar_angle_l	mtp_angle_l	lumbar_extension	lumbar_bending	lumbar_rotation	arm_flex_r	arm_add_r	arm_rot_r	elbow_flex_r	pro_sup_r	wrist_flex_r	wrist_dev_r	arm_flex_l	arm_add_l	arm_rot_l	elbow_flex_l	pro_sup_l	wrist_flex_l	wrist_dev_l
0	0	0	0	0	0.9399999999999999	0	0	0	0	0	0	0	0	0	0	0	0	0	0	0	0	0	0	0	0	0	0	0	0	89.99999999963507	0	0	0	0	0	0	89.99999999869995	0	0
0.02	0.3092879777556855	3.144650667287614	83.13305759258229	0	0.9399999999999999	0	-7.414582139822161	-3.639157986529744	-4.154461590154081	1.176185692337282	0.02052831294613462	0	0	0	-8.177449234918827	-4.08524775164098	-13.67775787047937	1.120220083569062	0.01955152880524617	0	0	0	0	0	0	1.869928121568887	-1.869928121568887	0.3330189814343909	9.264909045271072	89.66698103776837	0	0	1.869928121568887	-1.869928121568887	0.3330189814343909	9.264909045271072	89.66698103689568	0	0
0.04	0.3061055777102414	3.23791627357785	83.17200578635276	0	0.9399999999999999	0	-7.407374898833989	-3.679791594403333	-4.218480929557717	1.326091360252023	0.02314466041864807	0	0	0	-8.274017242641717	-4.070520969748744	-13.68800155271277	1.098727674515132	0.01917641550306965	0	0	0	0	0	0	2.621845444481028	-2.621845444481028	0.4731174164387131	11.6306281481295	89.52688261102519	0	0	2.621845444481028	-2.621845444481028	0.4731174164387131	11.6306281481295	89.52688261017879	0	0
0.06	0.3051860206899895	3.263691919867926	83.18704486255928	0	0.9399999999999999	0	-7.450067966764854	-3.68412033846729	-4.240967437373773	1.348079375399475	0.02352842367894949	0	0	0	-8.29674997859861	-4.062271304905986	-13.69411112180584	1.085478182772832	0.01894516824795071	0	0	0	0	0	0	3.306334249323909	-3.30633424932391	0.6007427251125123	14.35842042321898	89.39925730988242	0	0	3.306334249323909	-3.30633424932391	0.6007427251125123	14.35842042321898	89.39925730906013	0	0
0.08	0.272306118908865	3.423248506872803	83.23817739107444	0	0.9399999999999999	0	-7.546130213683551	-3.758805890038281	-4.360401768654933	1.416641425963013	0.02472505720320206	0	0	0	-8.379352157081431	-4.012289970127483	-13.82023965881423	1.150998425147507	0.0200887122040935	0	0	0	0	0	0	3.310275304960147	-3.310275304960148	0.6014997019234621	14.38507875327699	89.39850033311654	0	0	3.310275304960147	-3.310275304960148	0.6014997019234621	14.38507875327699	89.39850033229442	0	0
0.1	0.2740992757912106	3.40901098448953	83.23641367698698	0	0.9399999999999999	0	-7.527445360144088	-3.759765953100794	-4.366619139828707	1.438653419712406	0.02510923896905737	0	0	0	-8.307579512521402	-3.985191507222813	-13.87379354335148	1.236757693189597	0.02158549379552831	0	0	0	0	0	0	3.833418631693963	-3.833418631693964	0.6982384387521076	16.33074616470954	89.30176160198462	0	0	3.833418631693963	-3.833418631693964	0.6982384387521076	16.33074616470954	89.30176160118064	0	0
0.12	0.2555243431338617	3.557628512836491	83.251409767124	0	0.9399999999999999	0	-7.55795703206548	-3.898811461288915	-4.590861276711635	1.541602260688233	0.02690603520519761	0	0	0	-8.410951763722551	-3.912158147345545	-13.88738086306645	1.250612835191335	0.02182731164179001	0	0	0	0	0	0	3.836872978943321	-3.836872978943322	0.6988969953804189	16.35234867824505	89.30110304539546	0	0	3.836872978943321	-3.836872978943322	0.6988969953804189	16.35234867824505	89.3011030445916	0	0
0.14	0.2316870562000566	3.624556474254576	83.2557787507217	0	0.9399999999999999	0	-7.443601805244859	-4.058227811901513	-4.731448133761332	1.726629664382995	0.03013537260608793	0	0	0	-8.426448582281548	-3.847126300105857	-13.87224234553902	1.271715663969918	0.02219562548546088	0	0	0	0	0	0	3.841384270785611	-3.841384270785611	0.6997588614666254	16.38076131476126	89.30024117936047	0	0	3.841384270785611	-3.841384270785611	0.6997588614666254	16.38076131476126	89.30024117855677	0	0
0.16	0.2696846865665152	3.681285393013345	83.21818031046601	0	0.9399999999999999	0	-7.4120903826238	-4.078041517942665	-4.741536477883001	1.737226241771035	0.03032031777095161	0	0	0	-8.422521896639601	-3.837117902284891	-13.88214818537365	1.273783248254927	0.02223171163879679	0	0	0	0	0	0	3.841785101996277	-3.841785101996278	0.6998326465357629	16.38294196729396	89.30016739429567	0	1.077613842297402e-35	3.841785101996277	-3.841785101996278	0.6998326465357629	16.38294196729396	89.30016739349202	0	1.077613842297402e-35
0.18	0.2298291155141415	3.718782081059429	83.16329023375846	0	0.9399999999999999	0	-7.402396142585696	-4.154948660114718	-4.701230839742019	1.904261473210847	0.03323563252640707	0	0	0	-8.396071500010034	-3.753252385303482	-13.90363237000398	1.364618614780072	0.02381708786191641	0	0	0	0	0	0	3.978902889570391	-3.978902889570393	0.7249227308780232	16.83798385362209	89.27507731142693	0	0	3.978902889570391	-3.978902889570393	0.7249227308780232	16.83798385362209	89.27507731062801	0	0
0.2	0.176516637281717	3.796159467155715	83.13814374852659	0	0.9399999999999999	0	-7.23348520076362	-4.412816222314431	-4.870847156353985	2.109915394525618	0.03682497057298718	0	0	0	-8.384101652530251	-3.608006514418985	-13.85637286144351	1.352182438552978	0.02360003564039537	0	0	0	0	0	0	3.983349298138506	-3.983349298138508	0.725771352155089	16.86558179672155	89.27422869020029	0	0	3.983349298138506	-3.983349298138508	0.725771352155089	16.86558179672155	89.2742286894016	0	0
0.22	0.1575984528146115	3.823376496397514	83.11715395889058	0	0.9399999999999999	0	-7.110038938419282	-4.537223691077719	-4.953441276716373	2.30328726228191	0.04019994634606554	0	0	0	-8.312442291150887	-3.52944779211851	-13.81584191733131	1.373155949946729	0.02396609246992087	0	0	0	0	0	0	3.988067437851249	-3.988067437851251	0.7266719087349542	16.89485065147653	89.27332813367387	0	0	3.988067437851249	-3.988067437851251	0.7266719087349542	16.89485065147653	89.27332813287548	0	0
0.24	0.124902153132648	3.936766320900914	83.08188094327856	0	0.9399999999999999	0	-7.036447831714849	-4.675406078545644	-5.007181695843861	2.473080637296801	0.04316339978814885	0	0	0	-8.338211232444275	-3.427011438550219	-13.81727826944047	1.422286689767197	0.02482358564372873	0	0	0	0	0	0	3.992072761956542	-3.992072761956543	0.7274348213617409	16.91948800126765	89.27256522109244	0	0	3.992072761956542	-3.992072761956543	0.7274348213617409	16.91948800126765	89.27256522029413	0	0
0.26	0.06966401102934004	4.108242656256037	83.00868445020903	0	0.9399999999999999	0	-7.004904362300003	-4.914018328707841	-5.019588409159354	2.67822512004454	0.04674384645439761	0	0	0	-8.384569212614707	-3.253556740523619	-13.87799474650999	1.400564831916538	0.02444446770458455	0	0	0	0	0	0	3.995827166154587	-3.995827166154588	0.7281489960296699	16.9424532513592	89.27185104646692	0	0	3.995827166154587	-3.995827166154588	0.7281489960296699	16.9424532513592	89.27185104566871	0	0
0.28	0.04726038995633564	4.146234106066473	82.96870986936581	0	0.9399999999999999	0	-6.749125342794024	-5.081208794162551	-5.113880188465803	2.968222640445779	0.05180525800801865	0	0	0	-8.156288848406938	-3.11642662401985	-13.8747856226608	1.437219954785241	0.02508422028636648	0	0	0	0	0	0	4.000131183993805	-4.000131183993807	0.7289695359469228	16.96897379846913	89.27103050659844	0	0	4.000131183993805	-4.000131183993807	0.7289695359469228	16.96897379846913	89.27103050580034	0	0
0.3	0.02915610500688243	4.369262131550763	82.72571978459619	0	0.9399999999999999	0	-6.625326793635235	-5.29609090279689	-5.028852811375677	3.328858252305753	0.05809953683491951	0	0	0	-8.231104990318219	-2.975855236554848	-14.24845363903881	1.494159922181142	0.02607801019340318	0	0	0	0	0	0	4.004358937896786	-4.004358937896788	0.7297726230060874	16.99466249572626	89.27022741958696	0	0	4.004358937896786	-4.004358937896788	0.7297726230060874	16.99466249572626	89.27022741878903	0	0
0.32	0.01703845189048961	4.39151407504021	82.64090020554193	0	0.9399999999999999	0	-6.134604499145764	-5.493816031098466	-5.201082360001466	4.097796344799709	0.07152003829294375	0	0	0	-8.007238524313005	-2.861221862079942	-14.85980831890605	1.45623985360226	0.02541618014411965	0	0	0	0	0	0	4.014685959715529	-4.01468595971553	0.7317437154592379	17.0584296826115	89.26825632725088	0	0	4.014685959715529	-4.01468595971553	0.7317437154592379	17.0584296826115	89.26825632645337	0	0
0.34	0.001124464876340969	4.463076255938214	82.33548388634014	0	0.9399999999999999	0	-5.600820447241635	-5.692770063030254	-5.194119177639629	4.741757958689865	0.08275928871178341	0	0	0	-7.840195721398318	-2.75145864801963	-15.79603769377481	1.599687183290638	0.02791980835037566	0	0	0	0	0	0	4.025048749392901	-4.025048749392903	0.7337195160994237	17.1220460904422	89.26628052672811	0	0	4.025048749392901	-4.025048749392903	0.7337195160994237	17.1220460904422	89.2662805259309	0	0
0.36	-0.008832772128266593	4.483431911746433	81.89099120804042	0	0.9399999999999999	0	-4.783835134111504	-5.942664408557021	-5.154474561438517	5.682253777040371	0.09917403734323825	0	0	0	-7.592014317296608	-2.414151445377133	-16.5312680386269	1.723366905043874	0.03007842671292007	0	0	0	0	0	0	4.034952406785391	-4.034952406785392	0.735608167781078	17.18276628129509	89.26439187515869	0	0	4.034952406785391	-4.034952406785392	0.735608167781078	17.18276628129509	89.26439187436179	0	0
0.3800000000000001	-0.005472942077659525	4.397078655682803	81.3048595324268	0	0.9399999999999999	0	-3.714473341556657	-6.190661361890434	-5.106582337355952	6.781717161851225	0.1183632934133091	0	0	0	-7.115536983102619	-2.091514823542037	-16.95105041154535	2.024034954661805	0.03532607413430264	0	0	0	0	0	0	4.050324994144668	-4.050324994144669	0.7385411784848633	17.27675056474304	89.26145886462922	0	0	4.050324994144668	-4.050324994144669	0.7385411784848633	17.27675056474304	89.26145886383277	0	0
0.4000000000000001	0.01317409098075695	4.177396691744413	80.62186365169907	0	0.9399999999999999	0	-2.29118569070062	-6.451745183233319	-5.162868285205549	8.194221674653535	0.1430161478609878	0	0	0	-6.339783144091126	-1.925049508109222	-17.45207765996335	2.751557414262171	0.04802373643653646	0	0	0	0	0	0	4.066884411743763	-4.066884411743765	0.7416992197171943	17.37747631426535	89.25830082358445	0	0	4.066884411743763	-4.066884411743765	0.7416992197171943	17.37747631426535	89.25830082278857	0	0
0.4200000000000001	0.04104598079289497	3.788941652470844	79.85656720458205	0	0.9399999999999999	0	-0.5279445930425596	-6.715293657801406	-5.459091575587959	9.708014679416424	0.1694368199877584	0	0	0	-5.368408551002953	-1.935253416471372	-17.83016505361354	3.428310578125734	0.05983530736924435	0	0	0	0	0	0	4.298666371900094	-4.298666371900095	0.7808512162915601	18.21180503853143	89.21914882928262	0	0	4.298666371900094	-4.298666371900095	0.7808512162915601	18.21180503853143	89.21914882849406	0	0
0.4400000000000001	0.06120004479867061	3.199781703659329	78.98661342165774	0	0.9399999999999999	0	1.505983258470113	-6.958503509618496	-6.045141153099527	11.62699438962125	0.2029293342097993	0	0	0	-4.733919833690359	-1.987818349969968	-18.36855038873202	3.231712692950488	0.05640402697047855	0	0	0	0	0	0	4.499744769636079	-4.499744769636081	0.8148798308575144	18.94175008610162	89.1851202166925	0	0	4.499744769636079	-4.499744769636081	0.8148798308575144	18.94175008610162	89.18512021591027	0	0
0.4600000000000001	0.06274382196323802	2.822757076058582	78.52254814050384	0	0.9399999999999999	0	3.464408201310401	-7.305256555019534	-7.089572817765185	13.53582797343281	0.236244765119954	0	0	0	-3.870168566494088	-1.938838930990044	-18.24778937648256	3.262411118686586	0.05693981557475242	0	0	0	0	0	0	4.687359641273496	-4.687359641273498	0.8465272059738922	19.61179419533966	89.15347284341233	0	0	4.687359641273496	-4.687359641273498	0.8465272059738922	19.61179419533966	89.15347284263605	0	0
0.4800000000000001	-0.1032834621115405	1.23109406934398	76.33965123318455	0	0.9399999999999999	0	6.891938318810618	-7.385276027580018	-6.355046241529714	15.44762392163981	0.2696118990424533	0	0	0	-1.956538712745717	-1.932094385937153	-20.13092253493677	2.976705888187781	0.05195331861237896	0	0	0	0	0	0	4.928907154897838	-4.92890715489784	0.8871992517524332	20.46563909721788	89.11280079999273	0	0	4.928907154897838	-4.92890715489784	0.8871992517524332	20.46563909721788	89.11280079922395	0	0
